<svg width="1000" height="542" viewBox="0 0 1000 542" fill="none" xmlns="http://www.w3.org/2000/svg">
<g clip-path="url(#clip0_201_4)">
<g clip-path="url(#clip1_201_4)">
<g clip-path="url(#clip2_201_4)">
<g clip-path="url(#clip3_201_4)">
<g clip-path="url(#clip4_201_4)">
<g clip-path="url(#clip5_201_4)">
<g clip-path="url(#clip6_201_4)">
<path d="M99.997 320.319V539.331H71.1034V320.319H99.997ZM170.229 320.319V343.976H0.994873V320.319H170.229ZM266.459 339.602L194.132 539.331H164.006L247.669 320.319H266.89L266.459 339.602ZM327.08 539.331L254.445 339.602L254.137 320.319H273.235L357.021 539.331H327.08ZM323.445 458.441V482.036H200.293V458.441H323.445ZM503.029 484.008C503.029 477.067 501.571 471.194 498.655 466.388C495.739 461.583 490.523 457.229 483.007 453.328C475.49 449.385 464.812 445.422 450.971 441.438C440.169 438.316 430.415 434.784 421.708 430.841C413.042 426.857 405.608 422.319 399.406 417.226C393.163 412.092 388.399 406.219 385.113 399.607C381.787 392.994 380.123 385.416 380.123 376.874C380.123 365.456 383.224 355.25 389.426 346.255C395.586 337.302 404.232 330.237 415.362 325.062C426.493 319.887 439.512 317.3 454.421 317.3C470.973 317.3 485.019 320.442 496.56 326.726C508.101 333.01 516.87 341.183 522.866 351.245C528.904 361.308 531.922 372.068 531.922 383.527H502.597C502.597 375.313 500.852 367.982 497.361 361.534C493.911 355.126 488.633 350.095 481.528 346.44C474.423 342.785 465.387 340.957 454.421 340.957C444.194 340.957 435.754 342.497 429.101 345.577C422.447 348.699 417.518 352.929 414.315 358.268C411.07 363.567 409.448 369.625 409.448 376.442C409.448 382.562 411.214 388.004 414.746 392.768C418.237 397.532 423.741 401.824 431.257 405.644C438.814 409.423 448.548 413.016 460.458 416.425C477.01 421.066 490.605 426.447 501.242 432.566C511.839 438.686 519.683 445.894 524.776 454.19C529.828 462.528 532.354 472.364 532.354 483.7C532.354 495.528 529.191 505.858 522.866 514.688C516.541 523.477 507.67 530.295 496.252 535.142C484.834 539.947 471.404 542.35 455.961 542.35C445.817 542.35 435.857 540.933 426.082 538.099C416.307 535.306 407.436 531.096 399.468 525.469C391.5 519.884 385.134 512.943 380.37 504.646C375.605 496.391 373.223 486.801 373.223 475.876H402.425C402.425 483.392 403.862 489.861 406.737 495.282C409.653 500.703 413.617 505.16 418.627 508.651C423.638 512.142 429.368 514.729 435.816 516.413C442.223 518.056 448.938 518.877 455.961 518.877C466.065 518.877 474.607 517.44 481.59 514.565C488.572 511.731 493.89 507.706 497.546 502.49C501.201 497.274 503.029 491.113 503.029 484.008ZM598.519 320.319V539.331H569.318V320.319H598.519ZM730.727 320.319L639.734 422.463L588.601 475.383L583.795 444.703L622.115 402.132L695.55 320.319H730.727ZM702.45 539.331L621.56 432.566L638.995 409.525L737.319 539.331H702.45ZM793.874 320.319V539.331H764.734V320.319H793.874ZM927.561 320.319V539.331H898.729V320.319H927.561ZM997.793 320.319V343.976H828.621V320.319H997.793Z" fill="white"/>
</g>
</g>
</g>
</g>
<g clip-path="url(#clip7_201_4)">
<g clip-path="url(#clip8_201_4)">
<path d="M455.747 0L315.997 139.327L257.651 80.139L232.061 105.445L303.058 177.428L315.853 190.223L328.648 177.428L481.188 25.4503L455.742 0.00449858L455.747 0ZM207.043 12.2325C198.194 12.2325 191.297 19.1293 191.297 27.9787V248.425C191.297 257.274 198.194 264.171 207.043 264.171H427.489C436.338 264.171 443.235 257.274 443.235 248.425V84.6379L425.24 102.633V246.175H209.292V30.2281H403.591L421.587 12.2325H207.043ZM497.222 66.2193V84.215H767.156V66.2193H497.222ZM497.222 120.206V138.202H722.167V120.206H497.222ZM497.222 174.193V192.189H740.163V174.193H497.222Z" fill="white"/>
</g>
</g>
<path d="M997.933 241.355H807.491V261.65H997.933V241.355Z" fill="white"/>
<path d="M191.297 241.355H0.854736V261.65H191.297V241.355Z" fill="white"/>
<path d="M997.933 200.765H807.491V221.06H997.933V200.765Z" fill="white"/>
<path d="M191.297 200.765H0.854736V221.06H191.297V200.765Z" fill="white"/>
</g>
</g>
</g>
<defs>
<clipPath id="clip0_201_4">
<rect width="1000" height="542" fill="white" transform="translate(-0.606079 0.174805)"/>
</clipPath>
<clipPath id="clip1_201_4">
<rect width="997.078" height="542.35" fill="white" transform="translate(0.854736)"/>
</clipPath>
<clipPath id="clip2_201_4">
<rect width="997.078" height="542.35" fill="white" transform="translate(0.854736)"/>
</clipPath>
<clipPath id="clip3_201_4">
<rect width="997.078" height="225.05" fill="white" transform="translate(0.854736 317.3)"/>
</clipPath>
<clipPath id="clip4_201_4">
<rect width="997.078" height="225.05" fill="white" transform="translate(0.854736 317.3)"/>
</clipPath>
<clipPath id="clip5_201_4">
<rect width="997.078" height="225.05" fill="white" transform="translate(0.854736 317.3)"/>
</clipPath>
<clipPath id="clip6_201_4">
<rect width="997.078" height="225.05" fill="white" transform="translate(0.854736 317.3)"/>
</clipPath>
<clipPath id="clip7_201_4">
<rect width="616.194" height="264.171" fill="white" transform="translate(191.297)"/>
</clipPath>
<clipPath id="clip8_201_4">
<rect width="575.86" height="264.171" fill="white" transform="translate(191.297)"/>
</clipPath>
</defs>
</svg>
