<svg
	xmlns="http://www.w3.org/2000/svg"
	version="1.1"
	xmlns:xlink="http://www.w3.org/1999/xlink"
	xmlns:svgjs="http://svgjs.dev/svgjs"
	width="1000"
	height="542"
	viewBox="0 0 1000 542"
>
	<g transform="matrix(1,0,0,1,-0.6060605177553953,0.1747767046887816)">
		<svg
			viewBox="0 0 396 215"
			data-background-color="#ffffff"
			preserveAspectRatio="xMidYMid meet"
			height="542"
			width="1000"
			xmlns="http://www.w3.org/2000/svg"
			xmlns:xlink="http://www.w3.org/1999/xlink"
		>
			<defs></defs>
			<g
				id="tight-bounds"
				transform="matrix(1,0,0,1,0.24000003496882982,-0.0693302426348481)"
			>
				<svg
					viewBox="0 0 395.52 215.1386604852697"
					height="215.1386604852697"
					width="395.52"
				>
					<g>
						<svg
							viewBox="0 0 395.52 215.1386604852697"
							height="215.1386604852697"
							width="395.52"
						>
							<g transform="matrix(1,0,0,1,0,125.86619216903554)">
								<svg
									viewBox="0 0 395.52 89.27246831623415"
									height="89.27246831623415"
									width="395.52"
								>
									<g>
										<svg
											viewBox="0 0 395.52 89.27246831623415"
											height="89.27246831623415"
											width="395.52"
										>
											<g>
												<svg
													viewBox="0 0 395.52 89.27246831623415"
													height="89.27246831623415"
													width="395.52"
												>
													<g
														transform="matrix(1,0,0,1,0,0)"
													>
														<svg
															width="395.52"
															viewBox="1.2200000286102295 -36.040000915527344 161.8000030517578 36.53000259399414"
															height="89.27246831623415"
															data-palette-color="#0074d9"
														>
															<path
																d="M17.29-35.55L17.29 0 12.6 0 12.6-35.55 17.29-35.55ZM28.69-35.55L28.69-31.71 1.22-31.71 1.22-35.55 28.69-35.55ZM44.31-32.42L32.57 0 27.68 0 41.26-35.55 44.38-35.55 44.31-32.42ZM54.15 0L42.36-32.42 42.31-35.55 45.41-35.55 59.01 0 54.15 0ZM53.56-13.13L53.56-9.3 33.57-9.3 33.57-13.13 53.56-13.13ZM82.71-8.98L82.71-8.98Q82.71-10.67 82-11.84 81.29-13.01 79.46-13.96 77.63-14.92 74.26-15.89L74.26-15.89Q71.63-16.65 69.51-17.61 67.4-18.58 65.89-19.82 64.37-21.07 63.57-22.68 62.76-24.29 62.76-26.37L62.76-26.37Q62.76-29.15 64.27-31.34 65.77-33.52 68.48-34.78 71.19-36.04 74.82-36.04L74.82-36.04Q78.85-36.04 81.66-34.51 84.47-32.98 85.93-30.53 87.4-28.08 87.4-25.29L87.4-25.29 82.64-25.29Q82.64-27.29 81.79-28.86 80.95-30.42 79.22-31.31 77.49-32.2 74.82-32.2L74.82-32.2Q72.33-32.2 70.71-31.45 69.09-30.69 68.31-29.39 67.52-28.1 67.52-26.44L67.52-26.44Q67.52-24.95 68.38-23.79 69.23-22.63 71.06-21.7 72.9-20.78 75.8-19.95L75.8-19.95Q79.83-18.82 82.42-17.33 85-15.84 86.24-13.82 87.47-11.79 87.47-9.03L87.47-9.03Q87.47-6.15 85.93-4 84.39-1.86 81.61-0.68 78.83 0.49 75.07 0.49L75.07 0.49Q72.6 0.49 70.22-0.2 67.84-0.88 65.9-2.25 63.96-3.61 62.8-5.63 61.64-7.64 61.64-10.3L61.64-10.3 66.38-10.3Q66.38-8.47 67.08-7.15 67.79-5.83 69.01-4.98 70.23-4.13 71.8-3.72 73.36-3.32 75.07-3.32L75.07-3.32Q77.53-3.32 79.23-4.02 80.93-4.71 81.82-5.98 82.71-7.25 82.71-8.98ZM98.21-35.55L98.21 0 93.47 0 93.47-35.55 98.21-35.55ZM119.67-35.55L104.9-18.97 96.6-10.38 95.82-15.36 102.04-22.27 113.96-35.55 119.67-35.55ZM115.08 0L101.95-17.33 104.78-21.07 120.74 0 115.08 0ZM129.92-35.55L129.92 0 125.19 0 125.19-35.55 129.92-35.55ZM151.62-35.55L151.62 0 146.94 0 146.94-35.55 151.62-35.55ZM163.02-35.55L163.02-31.71 135.56-31.71 135.56-35.55 163.02-35.55Z"
																opacity="1"
																transform="matrix(1,0,0,1,0,0)"
																fill="#0074d9"
																class="
																	undefined-text-0
																"
																data-fill-palette-color="primary"
																id="text-0"
															></path>
														</svg>
													</g>
												</svg>
											</g>
										</svg>
									</g>
								</svg>
							</g>
							<g transform="matrix(1,0,0,1,75.54432,0)">
								<svg
									viewBox="0 0 244.43135999999998 104.79110493881225"
									height="104.79110493881225"
									width="244.43135999999998"
								>
									<g>
										<svg
											xmlns="http://www.w3.org/2000/svg"
											version="1.1"
											data-icon="task"
											data-container-transform="translate(0 34)"
											viewBox="0 35.28099822998047 128 58.71900177001953"
											x="8"
											y="0"
											height="104.79110493881225"
											width="228.43135999999998"
											class="icon-icon-0"
											data-fill-palette-color="accent"
											id="icon-0"
										>
											<path
												d="M58.781 1.281l-31.063 30.969-12.969-13.156-5.688 5.625 15.781 16 2.844 2.844 2.844-2.844 33.906-33.781-5.656-5.656z m-55.281 2.719c-1.967 0-3.5 1.533-3.5 3.5v49c0 1.967 1.533 3.5 3.5 3.5h49c1.967 0 3.5-1.533 3.5-3.5v-36.406l-4 4v31.906h-48v-48h43.188l4-4h-47.688z m64.5 12v4h60v-4h-60z m0 12v4h50v-4h-50z m0 12v4h54v-4h-54z"
												transform="translate(0 34)"
												fill="#0074d9"
												data-fill-palette-color="accent"
											></path>
										</svg>
									</g>
								</svg>
							</g>
							<g>
								<rect
									width="75.54432"
									height="8.0506833219453"
									y="95.74042161686695"
									x="319.97568"
									fill="#0074d9"
									data-fill-palette-color="accent"
								></rect>
								<rect
									width="75.54432"
									height="8.0506833219453"
									y="95.74042161686695"
									x="0"
									fill="#0074d9"
									data-fill-palette-color="accent"
								></rect>
								<rect
									width="75.54432"
									height="8.0506833219453"
									y="79.63905497297635"
									x="319.97568"
									fill="#0074d9"
									data-fill-palette-color="accent"
								></rect>
								<rect
									width="75.54432"
									height="8.0506833219453"
									y="79.63905497297635"
									x="0"
									fill="#0074d9"
									data-fill-palette-color="accent"
								></rect>
							</g>
						</svg>
					</g>
				</svg>
				<rect
					width="395.52"
					height="215.1386604852697"
					fill="none"
					stroke="none"
					visibility="hidden"
				></rect>
			</g>
		</svg>
	</g>
</svg>
